<?xml version="1.0" standalone="no"?>
<!DOCTYPE svg PUBLIC "-//W3C//DTD SVG 20010904//EN"
 "http://www.w3.org/TR/2001/REC-SVG-20010904/DTD/svg10.dtd">
<svg version="1.0" xmlns="http://www.w3.org/2000/svg"
 width="600.000000pt" height="600.000000pt" viewBox="0 0 600.000000 600.000000"
 preserveAspectRatio="xMidYMid meet">
<metadata>
Created by potrace 1.15, written by Peter Selinger 2001-2017
</metadata>
<g transform="translate(0.000000,600.000000) scale(0.100000,-0.100000)"
fill="#000000" stroke="none">
<path d="M2710 5489 c-547 -62 -1084 -323 -1480 -719 -401 -400 -659 -936
-719 -1492 -14 -125 -14 -431 0 -556 60 -556 318 -1092 719 -1492 400 -401
936 -659 1492 -719 125 -14 431 -14 556 0 556 60 1092 318 1492 719 401 400
659 936 719 1492 14 125 14 431 0 556 -60 556 -318 1092 -719 1492 -400 401
-936 659 -1492 719 -112 13 -458 12 -568 0z m665 -224 c482 -82 914 -304 1255
-645 401 -400 642 -939 669 -1490 20 -427 -53 -787 -235 -1156 -364 -738
-1113 -1234 -1924 -1273 -427 -20 -787 53 -1156 235 -738 364 -1234 1113
-1273 1924 -20 427 53 787 235 1156 364 738 1113 1234 1924 1273 169 8 375 -2
505 -24z"/>
<path d="M2704 5105 c-615 -90 -1148 -433 -1494 -960 -153 -235 -273 -559
-315 -857 -19 -135 -19 -441 0 -576 88 -620 430 -1154 960 -1502 235 -153 559
-273 857 -315 135 -19 441 -19 576 0 620 88 1154 430 1502 960 153 235 273
559 315 857 19 135 19 441 0 576 -88 620 -430 1154 -960 1502 -235 153 -559
273 -857 315 -128 18 -458 18 -584 0z m273 -521 c184 -38 329 -112 455 -232
172 -165 262 -365 275 -612 7 -134 -4 -214 -48 -343 -16 -49 -29 -92 -29 -96
0 -5 26 -37 57 -72 121 -136 210 -314 250 -499 21 -101 24 -323 4 -415 -81
-392 -341 -697 -706 -828 -202 -72 -449 -82 -647 -25 l-38 11 0 188 0 187 -57
32 c-78 44 -200 169 -251 257 l-42 71 0 1089 1 1088 61 48 c97 76 196 121 339
152 89 19 282 19 376 -1z"/>
<path d="M2720 4474 c-14 -2 -52 -9 -85 -15 -70 -12 -175 -55 -251 -101 l-54
-32 0 -1044 c0 -1159 -6 -1056 69 -1155 32 -43 128 -127 144 -127 4 0 8 496 9
1102 l3 1102 70 25 c56 20 90 25 170 25 128 1 214 -25 319 -95 160 -107 246
-265 246 -454 0 -166 -53 -290 -175 -411 l-82 -82 71 -31 c178 -78 325 -240
392 -431 95 -272 28 -550 -180 -755 -93 -91 -163 -136 -279 -178 -76 -28 -93
-30 -222 -31 -77 -1 -155 2 -172 6 l-33 8 0 -115 0 -114 48 -7 c79 -13 252 -7
337 11 345 73 623 328 719 658 68 236 49 490 -54 704 -49 100 -143 227 -215
289 l-53 46 33 67 c81 164 105 337 69 508 -35 169 -100 290 -218 408 -139 138
-306 211 -505 219 -53 3 -107 3 -121 0z"/>
<path d="M2703 4123 l-23 -4 0 -419 c0 -475 -10 -427 95 -437 67 -6 159 13
227 48 63 32 160 134 194 204 27 56 29 68 29 175 0 109 -2 119 -32 183 -44 93
-119 169 -211 214 -67 34 -83 37 -166 39 -50 1 -101 0 -113 -3z"/>
<path d="M2770 3109 c-25 -5 -55 -11 -67 -14 l-23 -5 0 -579 0 -578 60 -13
c94 -20 259 -9 342 23 126 48 242 144 314 257 73 116 102 298 70 443 -39 176
-159 333 -310 407 -125 62 -262 83 -386 59z"/>
</g>
</svg>
